/* XPM */
static char *result[] = {
/* columns rows colors chars-per-pixel */
"50 50 179 2 ",
"   c #70581E",
".  c #745D25",
"X  c #795F22",
"o  c #765F28",
"O  c #7D6223",
"+  c #77612B",
"@  c #7A6430",
"#  c #7C6A3C",
"$  c #7F6E43",
"%  c #836722",
"&  c #876822",
"*  c #8C6D25",
"=  c #856B2D",
"-  c #8A6D29",
";  c #906F25",
":  c #8F722C",
">  c #947326",
",  c #997727",
"<  c #957529",
"1  c #9C7A29",
"2  c #846D36",
"3  c #816E3F",
"4  c #8B7239",
"5  c #9A7D3B",
"6  c #A27E2A",
"7  c #826F41",
"8  c #837144",
"9  c #8C7642",
"0  c #8F7841",
"q  c #8A7749",
"w  c #957E47",
"e  c #6E932B",
"r  c #6E942B",
"t  c #6F942B",
"y  c #6F952C",
"u  c #70952C",
"i  c #70962C",
"p  c #71962C",
"a  c #70972C",
"s  c #71972C",
"d  c #71972D",
"f  c #71982D",
"g  c #72982D",
"h  c #72992D",
"j  c #73992D",
"k  c #739A2D",
"l  c #739A2E",
"z  c #749A2D",
"x  c #749B2D",
"c  c #749A2E",
"v  c #749B2E",
"b  c #749C2E",
"n  c #759C2E",
"m  c #759D2E",
"M  c #769D2E",
"N  c #769D2F",
"B  c #769E2E",
"V  c #779E2E",
"C  c #769E2F",
"Z  c #779E2F",
"A  c #769F2F",
"S  c #779F2F",
"D  c #789F2F",
"F  c #77A02F",
"G  c #78A02F",
"H  c #78A12F",
"J  c #77A030",
"K  c #78A030",
"L  c #78A130",
"P  c #79A130",
"I  c #79A230",
"U  c #79A330",
"Y  c #7AA230",
"T  c #7AA330",
"R  c #7AA231",
"E  c #7AA331",
"W  c #7BA331",
"Q  c #7AA431",
"!  c #7BA431",
"~  c #7BA531",
"^  c #7CA431",
"/  c #7CA531",
"(  c #7CA631",
")  c #7CA532",
"_  c #7CA632",
"`  c #7DA632",
"'  c #7DA732",
"]  c #7EA732",
"[  c #7EA733",
"{  c #7EA832",
"}  c #7FA832",
"|  c #7FA932",
" . c #7EA833",
".. c #7FA833",
"X. c #7FA933",
"o. c #A6822B",
"O. c #AB852C",
"+. c #AF892E",
"@. c #B18B2E",
"#. c #B5902F",
"$. c #A98531",
"%. c #AF8930",
"&. c #B48E31",
"*. c #B69031",
"=. c #BC9433",
"-. c #B6953A",
";. c #BC9939",
":. c #80A933",
">. c #80AA33",
",. c #81AA33",
"<. c #80AB33",
"1. c #81AB33",
"2. c #80AA34",
"3. c #81AA34",
"4. c #81AB34",
"5. c #82AB34",
"6. c #81AC34",
"7. c #82AC34",
"8. c #82AD34",
"9. c #83AD34",
"0. c #82AC35",
"q. c #82AD35",
"w. c #83AD35",
"e. c #83AE34",
"r. c #83AE35",
"t. c #84AE34",
"y. c #84AE35",
"u. c #84AF35",
"i. c #84AE36",
"p. c #84AF36",
"a. c #85AF36",
"s. c #85B035",
"d. c #85B036",
"f. c #86B036",
"g. c #86B136",
"h. c #86B137",
"j. c #87B237",
"k. c #C09734",
"l. c #C39A36",
"z. c #C69C38",
"x. c #C99F39",
"c. c #C9A337",
"v. c #CDA239",
"b. c #CDA838",
"n. c #D2A63A",
"m. c #D4AC3C",
"M. c #DBAD3E",
"N. c #D7B23C",
"B. c #DDB33E",
"V. c #DEBA3E",
"C. c #E0BB3F",
"Z. c #A78A46",
"A. c #AD904C",
"S. c #A78F54",
"D. c #AE9967",
"F. c #AF9D73",
"G. c #DEB740",
"H. c #E2B640",
"J. c #E3BB41",
"K. c #E8BD42",
"L. c #E7C242",
"P. c #ECC543",
"I. c #EDC944",
"U. c #F1CC45",
"Y. c #F9D648",
"T. c #A29F99",
"R. c #AFA387",
"E. c #ADA591",
"W. c #A6A299",
"Q. c #AAA69E",
"!. c gray65",
"~. c #B8B5AE",
"^. c #B6B6B6",
"/. c #BDBAB2",
"(. c #C2BDB2",
"). c #C4C0B6",
"_. c #C4C1BA",
"`. c #CECECE",
"'. c gray87",
/* pixels */
"I S C K G G C V G P ~ 0.2./ T I R Z Z P I I C S I L C s n I n S I S C I I I X.X.` T I ` ! I H G G C ",
"I I I M n M L L n G I T X.8.~ ' h.! I I I I I I I C N L I I n S I h i I I I B ! a.) I h.X.L M n M G ",
"C C C n C G I L n G L C Y _ T ! ] v k G J S I / 0.T L I K C G P I n c I I I M G ' E I ] Y C G G G A ",
"n n m m G E I L m G G N S H I I P i i F S M I ` g./ I P K Z P I I Z M P I I M Z I P P I Z m P T E S ",
"n S L L ( >.! I L Z Z G n f S G M y i F S M I ( u./ P M ) w.M D I L K M G I L L P Z M I v g H ` r.! ",
"S ` X.{ ..{ T I S S S I C v G G n k v L G S I ! | I S S ! 4.S T { X. .S S S I J b n n S n v S / f.4.",
"T r.j.s.X.I I L n G I I I I I G n L I I I I I I I N N I I I I { u.g.f.I C n L N t k n n S L m Y u.g.",
"T r.j.) T I I L n G / y.a.y./ I L I ! w. .I I I I P Z i v I M G ! 7.t.I 2.i.E N t k n L k g F I ~ 8.",
"T 6.a.Q I L F S M F ! r.f.d. .! I ! ` r.' F L P I P C e j L M S I X.6.! 4.i.U N p v M I v f H I T X.",
"I ! ~ I F n s f L Z S ! 2.s.a.4.I w.r.` n a M Z I C v e f M L P I E / 8.! K N C F L L I B n P I I K ",
"I b k L L N u u S S S S T | y.,.S p.p.Y g y S S S S Z v b n S G I I I { I S S S S L I I L S S S S S ",
"L s e H I F i y n G L m S E 7.X.n i.i.K s y I G n H I I S n n S I I I I I I I G m L I I I L m n n G ",
"n G I M S L M M I I L m n n n n n L I I S n n k r A H n S I I v e j M I C n L ' e.~ I I 4.y.! I I C ",
"C G G B S G P Y ` E L C C N n m C L I I G M n c +.O.O.o.O.o.G c e c C I S C I / <.{ ` G ] 2.T I I S ",
"L C n L S D 4.u.h.' I I I L M C I I I I I L n O.m.V.n.v.v.=.@.g e m I I I I I I ! y.h.n M Z P I I I ",
"C h p N S P _ { d.r.2.T [ 4.E L I S S P F Z G l.C.C.v.x.v.v.*.@.N B S I S C I I U ` [ G G F C C C L ",
"n i e n F I I E 6.s.u.' 2.q.~ I H Z C P F o.#.Y.K.v.6 o.@.M.v.=.6 S C I C n L I L I I H F C n m C L ",
"n i e H I I I I I <.s.j.2.I I G n L I I I o.#.Y.c.=.M.n.n.@.=.=.O.I I I C n L G m L I n d u v C I I ",
"C g i S L I G G I ` >.7.[ I G S C L T ( ! o.*.Y.c.k.M.M.n.=.k.=.6 O.G G S C F C k C G C v j M S I I ",
"I C n n S L M M I C M o.o.O.O.6 I I ! '.{ o.*.Y.C.n.z.z.n.P.n.=.O.6 O.6 O.O.M j t k n I I I I I I I ",
"I C n L I L M M I O.c.L.n.n.n.k.&.o.R.^.Q.2 * b.L.U.I.I.P.J.k.l.C.C.n.n.l.k.o.L F M n I I / p.6.I C ",
"I S C ` ~ P S G [ l.N.U.x.v.v.v.k.@.D.E.Q.9 * %.m.L.L.L.C.v.c.m.U.B.v.v.x.x.@.+.` G C I / :.d.6.I S ",
"I I I f.4.I I ~ @.L.P.M.o.o.o.M.n.l.%.S.W.Z.6 & &.l.l.l.=.O.V.I.B.k.6 O.n.B.l.&.O._ I I 4.h.u.<.I I ",
"S L I ..2.:.Q ~ @.L.C.k.l.z.z.k.l.l.&.S.T.0 * O.6 6 6 6 6 6 V.L.k.l.z.z.k.k.l.&.o.7.4.I >.y.| ( I G ",
"n G I I X.a.~ ~ +.L.N.+.M.M.M.&.*.l.&.S.T.7 % =.1 * * * > 6 V.C.$.l.M.M.=.@.l.&.O.h.j.I X.7.E I I C ",
"I C n L S M L I +.L.I.B.z.l.z.U.J.l.%.S.!.!.n   $.z.l.l.=.+.V.U.H.v.z.z.L.Y.z.@.$.1.u.I S M P m t C ",
"I C n L L S P H * z.J.I.L.L.L.J.v.&.< 2 / I S M - * * - * % =.G.I.P.L.K.K.K.+., 4 (.X.I G S S C k F ",
"I C n L I I I F X %.G.Y.Y.Y.Y.H.l.o.% . X.I I C .           $.m.Y.Y.Y.Y.K.B.6 * 8 /.I I I L m C I I ",
"I L G I ' 4.! L N   < l.l.l.l.O.*   G ` o.o.o.o.o.o.G I ' o.> , z.z.l.l.@.o.% , A./.I C K I G H I v ",
"I T Q E X.y.! I L I * < < < < * = # 5 ;.m.v.l.l.*.&.$.L X.* 1 o.6 6 6 6 , > , > w /.H n S I E E L h ",
"T r.j.s.X.I I L n G S   + $ 8 8 q I -.b.U.M.n.n.v.l.+.n ^ O o.$.> > > > ; * 6 * 9 /.e n S ~ e.<.I I ",
"w.u.d.] ! P S C n G S y (._./.~.F.o.B.P.M.*.O.+.v.n.=.+.o.6 < 1 =.=.=.=.O.6 & , Z.).e G L T ( } 7./ ",
"j.d.u.E I L M n n G S y v G i i A.o.V.L.l.l.l.l.l.l.l.O.6 * 1 o.6 o.o.6 1 , > > : (.e I I I I ] h.` ",
"u.{ / I I I L H H I G v C I S S H o.V.J.@.n.M.M.=.*.l.O.1 X $.$.* ; * * * & 6 & . C A N N C I ' u._ ",
">.T G I P K I I I _ ) S K I K L I o.V.P.n.v.c.x.V.V.l.O.o.C = < &.&.=.&.o.6 O 2 m L I C v v L / >.T ",
"L C n L F M L I I q.y.! I I B C I * ;.J.P.C.J.J.K.M.@.> * I I = < < < < * & 3 s M L I I l s G I I C ",
"C G G I P G C Z I 4.8.E  .7.E S C   o.b.U.U.U.U.C.l.6 X . I C G . . @ @ . . C S H I I I F C C S I L ",
"n G I I I L M M I <.7.E 2.d._ G n L   - z.z.z.l.+.> . n S I n S I `.`.`.I I I I I I I I I L m C I I ",
"L s e H v y v M I I L m n m L I I i y - o.$.O.$.1 * o I I I I I I q.`.`.C n L I ! y.j.I I I I G n G ",
"I b k S k u M S I K S S S S S K I v x C           o Z v m S I I I  .3.{ ' ` I ! 2.p.g.I I P F m h S ",
"I P L M k g G I I S C P I H C G ~ I I I S B I I I N v i h M I I L L I 8.d.j.Q ' g.w.7.L I L C v i C ",
"I Z M L G G I I I P L I F N G _ a.! I I P L I I I N m F G L I F M M C ! 6.s.E ' r.W D M F I L L S C ",
"I Z M T T I I I ~ T T ~ P M K ' j.' ! I I I ~ Q I Z Z I I I L S M n n I X.8.E / >.G n M F I L P I Z ",
"I I I e.X.I I ~ j.] _ d.2.P M Y u.j.a.~ I Q j.r.T I I I I I n S I g y I I I I G n n n I I L m C I I ",
"I ..4./ W I I ! g.w.2.X.) P M G { p.y.! ' 3.` ! S P ! 4.' I S L I C b I I I S S C h d I I E [ ` I F ",
"` r.h.G D I L Y 7.d.r.Y L G M C I <.>.T ..0.M n z G / y.2.~ _ ! I I I _ E I B S G i e L P ~ w.6.) G ",
"d.d.u.T I L C B E 4.4.S m m n C I T Y C L E P C y S I !  .e.d.>.I I Q d.' I P I G i e m F I Q { a.) ",
"g.8.<.P P P S S I ' ' S C N z n I I P S G I G B g V L I _ <.g.>.I (  .q._ I C C S k g C S G I ' d.` ",
"e./ I M S I I I I C M P I G s h I T T I I L n C I N N I I I r.X.I 0.a.I I I i s M K I I S B L _ 9./ ",
"/ T I L S Z P L C m M P G C C S I 5.6.! G M n C I N N I K C ( I C W ) C C C C S G Z C I L F C S P I "
};
