/* XPM */
static char *result[] = {
/* columns rows colors chars-per-pixel */
"50 50 112 2 ",
"   c #14182E",
".  c #161A30",
"X  c #1B1D34",
"o  c #251B31",
"O  c #2E1C32",
"+  c #1C2036",
"@  c #1F2338",
"#  c #25293F",
"$  c #582238",
"%  c #262A43",
"&  c #2B2E44",
"*  c #2A2E48",
"=  c #2C3047",
"-  c #33374E",
";  c #35384E",
":  c #3B3E52",
">  c #393F5D",
",  c #3D4156",
"<  c #3F435A",
"1  c #3F4463",
"2  c #414457",
"3  c #42465E",
"4  c #44485F",
"5  c #464A61",
"6  c #4B4F63",
"7  c #44496A",
"8  c #4B4F6A",
"9  c #4D5163",
"0  c #4E526C",
"q  c #51556C",
"w  c #55586A",
"e  c #585B6C",
"r  c #535770",
"t  c #555971",
"y  c #51577B",
"u  c #5F6273",
"i  c #5C6078",
"p  c #6D667D",
"a  c #66697B",
"s  c #6A6D7C",
"d  c #AD2E45",
"f  c #6F942B",
"g  c #70962C",
"h  c #769D2E",
"j  c #789F2F",
"k  c #77A02F",
"l  c #78A02F",
"z  c #77A030",
"x  c #7AA230",
"c  c #7FA933",
"v  c #82AD34",
"b  c #86B136",
"n  c #636780",
"m  c #656981",
"M  c #6B6F85",
"N  c #6E7181",
"B  c #6D728F",
"V  c #747786",
"C  c #73778D",
"Z  c #7A7C8B",
"A  c #686F99",
"S  c #6C739C",
"D  c #737791",
"F  c #757991",
"G  c #7B7E95",
"H  c #7B7F99",
"J  c #757CA2",
"K  c #7F8191",
"L  c #7E829C",
"P  c #7C82A6",
"I  c #858795",
"U  c #898C9A",
"Y  c #9C8C9F",
"T  c #93949D",
"R  c #8387A1",
"E  c #868AA6",
"W  c #8489AC",
"Q  c #8B8FA9",
"!  c #9395A3",
"~  c #9295AC",
"^  c #9B9DAA",
"/  c #8F94B4",
"(  c #9196B5",
")  c #969AB9",
"_  c #9B9FBA",
"`  c #AF9DB3",
"'  c #9CA1BD",
"]  c #A2A4AB",
"[  c #A7A8B4",
"{  c #A5A7B8",
"}  c #B2B3BF",
"|  c #C68797",
" . c #CEA5B2",
".. c #A3A7C2",
"X. c #A5A9C2",
"o. c #AAAEC6",
"O. c #ADB1C8",
"+. c #B0B4CA",
"@. c #B7BACE",
"#. c #BCBECA",
"$. c #BABED0",
"%. c #BEC0D3",
"&. c #C4C6D6",
"*. c #C5C8D7",
"=. c #C8CAD3",
"-. c #C7CAD9",
";. c #CCCEDB",
":. c #D2D3DF",
">. c #D4D6E1",
",. c #D7D9E3",
"<. c #D9DBE4",
"1. c #DFE0E8",
/* pixels */
"x j j j j j h j j k x v c c l l x z k x x x k k l z j f j x j j x j j x x x c c x x x c x x k k k j ",
"x x k h h h z k h k x x c v c c b x x x z z z x x k j k z z h j x f f z x z h x b x x b c z k j h j ",
"j h h h k k z z h j z j x x x x c h h j j h x x v x x x h j k k x j h z x k j k c x x c l j l k j k ",
"h h h h k x x z h k j j j k x x k f f j j j x c b x x x z j x k h j j x x x j j x z x x j j x l z k ",
"h k x z c c x l k j j k j f k k j                                 z z j z x z z l j h k h f k c b x ",
"j c c v c c x x h j h z j j k k h                     .           c c h z z x z h j h j h h k x b c ",
"l v b b c x l x h j x x k z z T ] 3 4 5 e e e e e e e e e e 9 5 5 b b x j j z h f f h h j j h x b b ",
"l b b x x l x x j k c v b v a     ....o.1.1.1.1.1.<.1.1.1.1.$.....-     c v x h f h h j g h h z x v ",
"x b b x z z k k j k x b b b I .   ....O.1.1.1.1.1.1.1.1.1.1.&.....-     c b x h f h j x h g k k l c ",
"l x x k j j g g z j k x   , a a n *.*.-.1.1.1.1.1.1.1.1.1.1.:.&.&.L m r +   h h k z k x h j x k l x ",
"k h h k z j f f j k j j     r ....<.1.1.1.1.1.1.1.1.1.1.1.1.<.1.1.O...H +     k k z x k k k j j k k ",
"k h f k x k f f h k k h     r ....1.1.1.1.1.1.1.1.1.1.1.1.1.1.1.1.O...H +     z j x x z x z h j j l ",
"h k x j j z j j z z z j     r ....1.1.1.1.1.1.1.1.1.1.1.1.1.1.1.1.O...L +     c v x l x v b x z k j ",
"j k k k j k x l c x z k     r ....1.1.1.1.1.1.1.1.1.1.1.1.1.1.1.1.O...L +     c c c c k x c x x z k ",
"k k h z j k v b b c z x     0 ) ) >.>.>.1.1.1.1.1.1.1.1.1.1.<.>.:..._ D X     x x b b j j j z z x x ",
"h g f h j z x c b v c x     < A A ....o.1.1.1.1.1.1.1.1.1.1.$.....J A y .     l x x c k k k j h j z ",
"j f f h k x l x v b v c     > A A ....o.<.1.1.1.1.1.1.1.1.1.$...{ J A y X .   x z x x z k j h h k z ",
"h f f k x x x k l c b b     8 / / 5 5 q @.@.;.1.1.1.1.1.$.@.G 7 4 P / B X     z h z x h f f h h x x ",
"h g f j k x j k l c c v     r ..'     % ....*.1.1.1.1.1.....r     R ..H X     h g h k k j h k k x x ",
"z j h j k z h h z j j x     r ....    # ....&.<.1.1.1.1.....r     R ..H + .   g f h h z x l l l k x ",
"z k j k x x j j x j h f     q ....          a ..........          R ..H +     z k h h k z x b c x j ",
"x k j x x z j k c z h f     t ....          t ..........        . R ..L +     c c k k x c v b v x k ",
"x x z b v x x x b x j f     r ....      O O p O.O.O.O.O.O O o     P ..H +     b b c k x c b b v x z ",
"k z x c c v x c b c z h     r ....    o d d | 1.1.1.1.<.d d $     I ..L +     c b c c x c b c l l k ",
"j j z z c v x c b c l k     r ....    o d d | 1.1.1.<.1.d d $ . . R ..H +     c v b b l c c x z x k ",
"k j h z k j k x k k l j k x - 4 3 D F G  . .` ( ( ( / (  . .Y F D 9 3 < h h z k k v b x k j x h f j ",
"z j h z k k x k h j j j k x l     ....o.1.1...A A A A A 1.1.$.....;     z j z z l c c x k k j h h k ",
"x j h k x x x k f g j j x x x     ....o.1.1.{ A A A A A 1.1.%.....-     x x x x x l z x x x j k k k ",
"x x k x c v x z j j j j           ,.,.&.& & K :.:.:.:.:.& & U <.,.2         j k x x l k k x l l k h ",
"l x x x c v x x j j j h           1.1.=.    Z 1.1.1.1.<.    I 1.1.2           j z z k j k k x x k h ",
"x b b b c x x x h j h g w e e e e ^ ^ U     e ^ ^ ^ ^ ^     a ^ ^ a e e e e 9 k h f f h l c v v z x ",
"v v b c x z j j h     : 1.1.1.1.1.  . .                           } 1.1.1.1.I     f f j x l x c v x ",
"b b b l k z j j h     2 1.1.1.1.<.                                } <.1.1.1.I     g g j l l l v b x ",
"b c x l x z k   # V I ! %.%.^ N M 7 7 8 m m C I I I I I n a y 7 7 a N I @.&.{ I K 2   j j j l l b c ",
"c k l x k j     @ [ 1.:.....m     A S S ....&.1.1.1.1.1.....W A A %   > ' ..&.1.#.;     h h l c c x ",
"x j j x j h     @ [ 1.>.O.O.N     J J P +.+.@.*.&.&.*.*.+.+.( J J *   2 { +.&.1.#.;     g h l l z k ",
"k k k x x k     @ [ 1.<.<.<.I .   ' ' ..<.<...J J J J J <.<.@.' ' -   6 ;.<.<.1.%.;     j j j j x z ",
"j k k k x z     @ [ 1.1.1.1.I .   ....o.1.1...A A A A A 1.1.$.....;   6 :.1.1.1.%.;     l l h h x z ",
"k g f k h f h   + Z ^ ^ ^ ^ i     D D H $.@._ P P P P P @.@.~ F F %   : ! ^ ^ ^ I #     x z z k h k ",
"z h h j h f h j x                     @ A A W ..X.......A A >                     b b x z k j j g j ",
"x k k k h h l l x                 + + % S S W ' _ _ _ ' S S 1 X +                 b v l l l l h f j ",
"x j j k j l x x x x x l k j       H H L ( ( m , , , , , / ( E L L =     v b x c b l l h l l l l j j ",
"x j j l k l x x x x x x k j z     ..........i           ..........-     c v x x v l h h k l l l x j ",
"x k k b c l x x b c c b c k j     Q Q Q Q Q t           Q Q Q Q Q -     x l k k h h h l l k h k x x ",
"x c c c x x x x b v v c x x j j c = = = = = % z h k x c = = = = = k h k x x k j j h g l l l c c x z ",
"c v b j j x z x v b v x x x h j x             h h h x b           l z c x k j k k g f k l c b v x k ",
"b b v x x z j j x v c z h h h h x l x j k x k j f k x x c b b c k x x b c k l l k f f k k l l c v c ",
"b v c x z z j k z c x j h j g h x x l k l x j j h k x x x v b c x x c b c x k k k g g k k k k c b c ",
"v c x j k k l x k j h x z k f h k x x x x k j h z j h z x z b c x v b z x z f h h z z z k k z x b x ",
"x l x l k j x x h j h k k j j j l v v x k j h j k h j z z j x x k x x k z j h j j j j z k k j k l x "
};
