/* XPM */
static char *result[] = {
/* columns rows colors chars-per-pixel */
"50 50 232 2 ",
"   c #14182E",
".  c #15192F",
"X  c #1D192F",
"o  c #191D33",
"O  c #251B31",
"+  c #1F2339",
"@  c #1D223A",
"#  c #1E233A",
"$  c #1F233B",
"%  c #23263B",
"&  c #23273C",
"*  c #22263D",
"=  c #23273E",
"-  c #24283E",
";  c #24283F",
":  c #69243B",
">  c #272B40",
",  c #282C40",
"<  c #2B2E43",
"1  c #2B2F43",
"2  c #2B2F45",
"3  c #342B41",
"4  c #2C3046",
"5  c #2C3047",
"6  c #2F3349",
"7  c #303347",
"8  c #313549",
"9  c #31354C",
"0  c #36394D",
"q  c #34384F",
"w  c #303552",
"e  c #373B53",
"r  c #343955",
"t  c #373C56",
"y  c #3B3F56",
"u  c #3E4256",
"i  c #3F435A",
"p  c #414457",
"a  c #40445C",
"s  c #42465D",
"d  c #42465E",
"f  c #44485F",
"g  c #4A4E63",
"h  c #434969",
"j  c #514B62",
"k  c #4E5163",
"l  c #4F5366",
"z  c #4C5068",
"x  c #515568",
"c  c #535669",
"v  c #52566C",
"b  c #55586A",
"n  c #585B6C",
"m  c #545870",
"M  c #5D6178",
"N  c #5F637B",
"B  c #636677",
"V  c #656879",
"C  c #AD2E45",
"Z  c #B24257",
"A  c #885A6F",
"S  c #BE697B",
"D  c #BE697C",
"F  c #6E932B",
"G  c #6F942B",
"H  c #6F952C",
"J  c #70952C",
"K  c #70962C",
"L  c #71962C",
"P  c #71972C",
"I  c #71972D",
"U  c #71982D",
"Y  c #72982D",
"T  c #72992D",
"R  c #73992D",
"E  c #739A2D",
"W  c #739A2E",
"Q  c #749A2D",
"!  c #749A2E",
"~  c #749B2E",
"^  c #749C2E",
"/  c #759C2E",
"(  c #759D2E",
")  c #769D2E",
"_  c #769D2F",
"`  c #769E2E",
"'  c #779E2E",
"]  c #769E2F",
"[  c #779E2F",
"{  c #769F2F",
"}  c #779F2F",
"|  c #789F2F",
" . c #77A02F",
".. c #78A02F",
"X. c #78A12F",
"o. c #77A030",
"O. c #78A030",
"+. c #78A130",
"@. c #79A130",
"#. c #79A230",
"$. c #79A330",
"%. c #7AA230",
"&. c #7AA330",
"*. c #7AA231",
"=. c #7AA331",
"-. c #7BA331",
";. c #7AA431",
":. c #7BA431",
">. c #7BA531",
",. c #7CA531",
"<. c #7CA631",
"1. c #7CA532",
"2. c #7CA632",
"3. c #7DA632",
"4. c #7DA732",
"5. c #7EA732",
"6. c #7EA733",
"7. c #7EA832",
"8. c #7FA832",
"9. c #7FA932",
"0. c #7EA833",
"q. c #7FA833",
"w. c #7FA933",
"e. c #80A933",
"r. c #80AA33",
"t. c #81AA33",
"y. c #80AB33",
"u. c #81AB33",
"i. c #80AA34",
"p. c #80AB34",
"a. c #81AB34",
"s. c #82AB34",
"d. c #81AC34",
"f. c #82AC34",
"g. c #82AD34",
"h. c #83AD34",
"j. c #82AC35",
"k. c #82AD35",
"l. c #83AD35",
"z. c #83AE34",
"x. c #83AE35",
"c. c #84AE34",
"v. c #84AE35",
"b. c #84AF35",
"n. c #84AE36",
"m. c #84AF36",
"M. c #85AF36",
"N. c #85B035",
"B. c #85B036",
"V. c #86B036",
"C. c #86B136",
"Z. c #86B137",
"A. c #87B237",
"S. c #555C81",
"D. c #5F6588",
"F. c #636780",
"G. c #606582",
"H. c #646880",
"J. c #63698B",
"K. c #6E7181",
"L. c #787B8D",
"P. c #686F99",
"I. c #6F759E",
"U. c #737790",
"Y. c #737791",
"T. c #727692",
"R. c #747891",
"E. c #777B91",
"W. c #747893",
"Q. c #797D97",
"!. c #7A7E97",
"~. c #797E9F",
"^. c #757BA2",
"/. c #BD7285",
"(. c #7E8191",
"). c #7E829C",
"_. c #7E829D",
"`. c #7B82A7",
"'. c #7C82A7",
"]. c #8B8E9E",
"[. c #BC8497",
"{. c #8387A1",
"}. c #8388AA",
"|. c #858AAC",
" X c #8B8FA9",
".X c #8F93AF",
"XX c #9395A4",
"oX c #999BA8",
"OX c #9B9DAA",
"+X c #9C9DAA",
"@X c #898EB0",
"#X c #898FB0",
"$X c #9397B1",
"%X c #9397B2",
"&X c #9B9FB6",
"*X c #969AB9",
"=X c #989CB8",
"-X c #999EBB",
";X c #9CA1BD",
":X c #A5A7B6",
">X c #A6A8B5",
",X c #A4A7B8",
"<X c #A4A7BA",
"1X c #ADAFBE",
"2X c #A3A7C2",
"3X c #A6ABC4",
"4X c #AAADC2",
"5X c #AAAEC6",
"6X c #B0B4CA",
"7X c #B7BACE",
"8X c #B7BACF",
"9X c #BBBDCB",
"0X c #BCBEC8",
"qX c #BDBFC9",
"wX c #B8BBCE",
"eX c #BDBFCC",
"rX c #BEC1D3",
"tX c #C4C7D7",
"yX c #C6C8D6",
"uX c #C8CAD3",
"iX c #CACDDB",
"pX c #CBCDDB",
"aX c #CDCFDC",
"sX c #CDCFDD",
"dX c #CED1DE",
"fX c #D2D3DF",
"gX c #D5D7E2",
"hX c #D6D8E2",
"jX c #D8DAE4",
"kX c #DCDDE6",
"lX c #DEDFE7",
"zX c #DFE0E8",
/* pixels */
"#.} ] O.....] ' ..@.>.j.i.,.&.#.*.[ [ @.#.#.] } #.+.] P / #./ } #.} ] #.#.#.w.w.3.&.#.3.:.#.X.....] ",
"#.#.#.) / ) +.+./ ..#.&.w.g.>.4.Z.:.#.#.#.#.#.#.#.] _ +.#.#./ } #.T K #.#.#.` :.M.1.#.Z.w.+.) / ) ..",
"] ] ] / ] ..#.+./ ..+.] %.2.&.:.5.~ E ..o.} #.,.j.&.+.#.O.] ..@.#./ ! #.#.#.) ..4.=.#.5.%.] ......{ ",
"/ / ( ( ..=.#.+.( ...._ } X.#.#.@.K K  .} ) #.3.C.,.#.@.O.[ @.#.#.[ ) @.#.#.) [ #.@.@.#.[ ( @.&.=.} ",
"/ } +.+.<.r.:.#.+.[ [ ../ U } ..) H K  .} ) #.<.b.,.@.) 1.l.) | #.+.O.) ..#.+.+.@.[ ) #.~ Y X.3.x.:.",
"} 3.w.7.q.7.&.#.} } } #.] ~ ..../ E ~ +...} #.:.9.#.} } :.a.} &.7.w.0.} } } #.o.^ / / } / ~ } ,.V.a.",
"&.x.A.N.w.#.#.+./ ..#.#.#.#.#.../ +.#.#.#.#.#.#.#._ _ #.#.#.#.7.b.C.V.#.] / +._ G E / / } +.( %.b.C.",
"&.x.A.1.&.#.#.+./ ..,.v.M.v.,.#.+.#.:.l.0.#.#.#.#.@.[ K ~ #.) ..:.f.c.#.i.n.=._ G E / +.E Y  .#.>.g.",
"&.d.M.;.#.+. .} )  .:.x.V.B.0.:.#.:.3.x.4. .+.@.#.@.] F R +.) } #.w.d.:.a.n.$._ L ~ ) #.~ U X.#.&.w.",
"#.:.>.#. ./ P U +.[ } :.i.N.M.a.#.                                =.,.g.:.O._ ]  .+.+.#.` / @.#.#.O.",
"#.^ E +.+._ J J } } } } &.9.v.t.} 2 5 5 0 0 0 0 0 0 0 0 0 8 > 4 5 #.#.7.#.} } } } +.#.#.+.} } } } } ",
"+.P F X.#. .K H / ..+.( } =.f.    !. X XqXqXqXqXqXqXqXqXqX0X,X X Xa     #.#.#...( +.#.#.#.+.( / / ..",
"/ ..#.) } +.) ) #.#.+.( / / /      X2X2XzXzXzXzXzXzXzXzXzXzXtX2X2Xf     ] / +.4.z.>.#.#.a.v.:.#.#.] ",
"] ....` } ..@.%.3.=.+.] ] _ / q q &X6X6XzXzXzXzXzXzXzXzXzXzXiX6X6XM q 9 } ] #.,.y.7.3...5.i.&.#.#.} ",
"+.] / +.} | a.b.Z.4.#.#.    s %X%XaXjXjXzXzXzXzXzXzXzXzXzXzXkXjXjX4X%XQ.-     #.:.v.Z./ ) [ @.#.#.#.",
"] T L _ } @.2.7.B.x.i.&.    f 2X2XgXzXzXzXzXzXzXzXzXzXzXzXzXzXzXzX8X2X{.-     #.$.3.6..... .] ] ] +.",
"/ K F /  .#.#.=.d.N.b.4.    f 2X2XgXzXzXzXzXzXzXzXzXzXzXzXzXzXzXzX8X2X{.-     #.+.#.#.X. .] / ( ] +.",
"/ K F X.#.#.#.#.#.y.N.A.    f 2X2XgXzXzXzXzXzXzXzXzXzXzXzXzXzXzXzX8X2X{.-     ..( +.#./ I J ~ ] #.#.",
"] Y K } +.#.....#.3.r.f.    d ;X;XdXjXjXzXzXzXzXzXzXzXzXzXzXkXjXjX6X;X_.=     ] E ] ..] ~ R ) } #.#.",
"#.] / / } +.) ) #.] ) @.    r ^.^.3X6X6XzXzXzXzXzXzXzXzXzXzXiX6X6X@X^.D.$     R G E / #.#.#.#.#.#.#.",
"#.] / +.#.+.) ) #.] ! K     w P.P.-X2X2XzXzXzXzXzXzXzXzXzXzXtX2X2X'.P.S.@     +. .) / #.#.,.m.d.#.] ",
"#.} ] 3.>.@.} ..6.@.^ G     t '.`.T.R.R.pXpXfXzXzXzXzXzXsXpX<XR.R.~.'.J.#     4.3...] #.,.e.B.d.#.} ",
"#.#.#.V.a.#.#.>.A.5.} H     f 2X2X5     2X2X8XzXzXzXzXzX5X2XF.    Y.2X{.-     B.B.2.#.#.a.Z.b.y.#.#.",
"} +.#.q.i.e.;.>.A.5.O./     f 2X2X5     2X2X8XzXzXzXzXzX5X2XF.    R.2X{.-     p.B.f.a.#.r.v.9.<.#...",
"/ ..#.#.w.M.>.>.A.5.#.#.    f 2X2X5     m m E.rXrXrXrXrXN m e     R.2X{.-     4.b.Z.A.#.w.f.=.#.#.] ",
"#.] / +.} ) +.#.#.#.+.(     f 2X2X5         f 2X2X2X2X2X;         R.2X{.-     ..[ u.b.#.} ) @.( G ] ",
"#.] / +.+.} @.X.~ ] } }     f 2X2X5     O O j 5X5X5X5X5X3 O X     R.2X{.-     +...4.w.#...} } ] E  .",
"#.] / +.#.#.#. .F R ) @.    f 2X2X5     C C S zXzXzXzXzXZ C :     R.2X{.-     #.#.#.#.#.#.+.( ] #.#.",
"#.+...#.4.a.:.+._ }  .]     f 2X2X5     C C S zXzXzXzXzXZ C :     R.2X{.-      .#.#.#.] O.#...X.#.~ ",
"#.&.;.=.w.v.:.#.+.#.../ . . y R.R.z f f D D [.wXwXwXwXwX/.D A f f H.R.H.*   ) [ +.+.X./ } #.=.=.+.T ",
"&.x.A.N.w.#.#.+./ ..} H ~ @.)      X2X2XzXzX7XP.P.P.P.P.fXzXtX2X2Xf     5.#.#...~ J F / } >.z.y.#.#.",
"l.b.B.5.:.@.} ] / ..} H ~ X.T      X2X2XzXzX7XP.P.P.P.P.fXzXtX2X2Xf     %.#.[ } } K F ..+.&.<.8.f.,.",
"A.B.b.=.#.+.) / / ..} H           1XpXpXn n L.7X7X7X7X7XB n ].pXpXx         ) ] ..K F #.#.#.#.5.Z.3.",
"b.7.,.#.#.#.+.X.X.#...~           qXzXzX    n zXzXzXzXzX<   K.zXzXn            .] ] { _ _ ] #.4.b.2.",
"r.&...#.@.O.#.#.#.2.1.}           qXzXzX    n zXzXzXzXzX<   K.zXzXn         7 ( ( +.#.] ~ ~ +.,.r.&.",
"+.] / +. .) +.#.#.    % zXzXzXzXzX0                               +XzXzXzXzXOX    +.#.#.W P ..#.#.] ",
"] ....#.@...] [ #.    < zXzXzXzXzX0                               +XzXzXzXzXOX    #.#.#. .] ] } #.+.",
"/ ..#.#.#.+.) ) #.k n V pXpX9XOXOXv f f n n g w w w w w c n l f f (.OX>XyXpX:Xn b #.#.#.#.+.( ] #.#.",
"+.P F X.~ H ~     OXzXjX2X2XR.     X2X2XzXzX7XP.P.P.P.P.fXzXtX2X2Xf   q %X2X8XzXuXp     #.#.#.../ ..",
"#.^ E } E J )     OXzXjX2X2XR.     X2X2XzXzX7XP.P.P.P.P.fXzXtX2X2Xf   q %X2X8XzXuXp     #.@. .( T } ",
"#.@.+.) E Y ..    OXzXlXfXfXXX    6 q q }.}.#X*X*X*X*X*X|.}.G.q q +   u eXfXhXzXuXp     #.+.] ~ K ] ",
"#.[ ) +.....#.    OXzXzXzXzX+X          P.P.'.2X2X2X2X2XI.P.h         p uXzXzXzXuXp      .#.+.+.} ] ",
"#.[ ) &.&.#.#.    oXzXzXzXzX+X          P.P.'.2X2X2X2X2XI.P.h         p uXzXzXzXuXp      .#.+.@.#.[ ",
"#.#.#.z.w.#.#.>.A.> < < < < &     ).$X$X;X;XW.; ; ; ; ; .X;X=X$X$Xi   o , < < < 1 / / #.#.+.( ] #.#.",
"#.q.a.,.-.#.#.:.C.                 X2X2X2X2XY.          $X2X2X2X2Xf               T I #.#.=.6.3.#. .",
"3.x.Z...| #.+.%.f.B.               X2X2X2X2XU.          $X2X2X2X2Xd             ..K F +.@.>.l.d.1...",
"B.B.b.&.#.+.] ` =.a.a.} ( ( / ] #.&.%.] +.=.@.] H } #.:.0.z.B.r.#.#.;.B.4.#.@.#...K F (  .#.;.7.M.1.",
"C.g.y.@.@.@.} } #.4.4.} ] _ Q / #.#.@.} ..#...` Y ' +.#.2.y.C.r.#.<.0.k.2.#.] ] } E Y ] } ..#.4.B.3.",
"z.,.#.) } #.#.#.#.] ) @.#...P T #.&.&.#.#.+./ ] #._ _ #.#.#.x.w.#.j.M.#.#.#.K P ) O.#.#.} ` +.2.h.,.",
",.&.#.+.} [ @.+.] ( ) @...] ] } #.s.d.:...) / ] #._ _ #.O.] <.#.] -.1.] ] ] ] } ..[ ] #.+. .] } @.#."
};
