/* XPM */
static char *result[] = {
/* columns rows colors chars-per-pixel */
"50 50 117 2 ",
"   c #15182C",
".  c #1B1B2E",
"X  c #1A1D31",
"o  c #221F31",
"O  c #262233",
"+  c #2B2334",
"@  c #342737",
"#  c #312E3B",
"$  c #3B2B39",
"%  c #36313E",
"&  c #402D3D",
"*  c #4E343F",
"=  c #252B41",
"-  c #2A2D46",
";  c #2F3445",
":  c #2F324C",
">  c #3B3541",
",  c #3E3944",
"<  c #37394B",
"1  c #323650",
"2  c #363A55",
"3  c #3F3D55",
"4  c #3B3F5C",
"5  c #433B45",
"6  c #543742",
"7  c #563A43",
"8  c #5B3A45",
"9  c #643F49",
"0  c #3C4455",
"q  c #3E405C",
"w  c #354D60",
"e  c #4D434C",
"r  c #5E4046",
"t  c #564A4F",
"y  c #44445D",
"u  c #4A455D",
"i  c #5B4B54",
"p  c #5D4C5F",
"a  c #5E5054",
"s  c #66404A",
"d  c #6C454C",
"f  c #674A4F",
"g  c #6F494D",
"h  c #70444E",
"j  c #654F5E",
"k  c #605155",
"l  c #6A595A",
"z  c #7E5152",
"x  c #7E5658",
"c  c #7A5A5A",
"v  c #535065",
"b  c #655460",
"n  c #6B5260",
"m  c #695D66",
"M  c #7E6D77",
"N  c #814D56",
"B  c #875058",
"V  c #8D5B5A",
"C  c #915E5E",
"Z  c #94605F",
"A  c #9D625D",
"S  c #A2645F",
"D  c #876C67",
"F  c #856E6A",
"G  c #906063",
"H  c #9D6664",
"J  c #976D6B",
"K  c #8E746E",
"L  c #A46762",
"P  c #A26964",
"I  c #A96A64",
"U  c #B36E65",
"Y  c #A7746F",
"T  c #A87671",
"R  c #C07F72",
"E  c #6E942B",
"W  c #70962C",
"Q  c #769D2E",
"!  c #789F2F",
"~  c #77A02F",
"^  c #78A02F",
"/  c #77A030",
"(  c #79A230",
")  c #7FA933",
"_  c #82AD34",
"`  c #86B136",
"'  c #AB8B7D",
"]  c #C08879",
"[  c #587686",
"{  c #5E7E8E",
"}  c #6B8594",
"|  c #708796",
" . c #5F97A9",
".. c #639FB2",
"X. c #64A2B4",
"o. c #9F8683",
"O. c #888591",
"+. c #9D979F",
"@. c #A08784",
"#. c #BB9D97",
"$. c #9395A1",
"%. c #CD9381",
"&. c #D79C87",
"*. c #C9A28E",
"=. c #D7A38F",
"-. c #DDA48E",
";. c #CCA490",
":. c #E5AF96",
">. c #E3B69D",
",. c #ECB89D",
"<. c #E7B9A0",
"1. c #F6C4A6",
"2. c #F4C6AC",
"3. c #C7C3CB",
"4. c #ECD1C4",
"5. c #E2DDDF",
"6. c #DFE0E7",
/* pixels */
"( ! ! ! ! ! Q ! Q ( ( _ _ ) ( ( ( Q ! ( ( ^ ! ! ( / ! E Q ( Q ! ( Q Q ( ( ( _ ) ( ( ( _ ( ( ( ! ! Q ",
"( ( ~ Q Q Q / ~ Q ! ( ( ) _ ( ) ` ( ( ( ( ^ ( / / ! ! ~ / ( Q ! ( W W ( ( ( Q ( ` ( ( ` ) ( Q Q Q ! ",
"! Q Q Q ~ ~ / / Q Q ( Q ( ) ( ( ) Q                                 Q ( ( ! Q ! ( ( ( ( ( Q ! ! ( Q ",
"Q Q Q Q ~ ( ( / Q ( ! Q Q / ( ( Q                                   Q ( ( ( Q Q ( ( ( ( ! Q ! ! ( Q ",
"! ~ / ~ ) ) ( ^ ( Q Q ! Q W ! ! Q                                   ! Q / / / / ( Q Q ( Q W ! _ ` ( ",
"! ) ) ) ) ) ( ( ! ! ! ( Q Q !     - 1 1 1 1 1 1 1 1 1 1 : 1 1 1 1 1 X     / ( / Q Q Q Q Q Q ! ( ` _ ",
"~ _ ` ` ) ( ^ ( Q ! ( ( ( ( !     : 4 4 4 4 4 4 4 4 4 4 4 4 4 4 4 4 X     Q / / W Q Q Q Q Q Q ( _ ` ",
"( _ ` ) ( ^ ( ( Q ! ( _ ` _ ( .   : 4 4 4 4 4 4 4 4 4 4 4 4 4 4 4 w X   X _ ( / E Q W Q Q W ! ( ) _ ",
"( _ ` ( / / ~ ! Q ~ ( _ .   = 2 2 4 4 4 4 4 4 4 4 4 4 4 4 4 4 4 4 4 2 2 1 X   X W Q ~ ( Q W ~ ( ( ) ",
"( ( ( ( ! Q Q E ~ ! / (     = 4 4 4 4 4 4 4 4 4 4 4 4 4 4 4 4 4 4 4 4 4 2     X ~ / ~ ^ Q Q ( / ( Q ",
"~ Q Q ~ ( ! E E ! ! ~ ~     = 4 4 4 4 4 4 4 4 4 4 4 4 4 4 4 4 4 4 4 4 4 2 X   X ~ ~ ( ( ~ ~ ! Q Q Q ",
"~ Q E ~ ( ~ E E Q ~ / !     = 4 4 4 4 4 4 4 4 4 4 4 4 4 4 4 4 4 4 4 4 4 2 X   X ! / / ( ( / ! ! Q ( ",
"Q ~ / ! ~ ~ ! ! / / ( !     = 4 4 4 4 4 4 4 4 4 4 4 4 4 4 4 4 4 4 4 4 4 2 .   X _ ( ^ ( ) _ ( ( ( Q ",
"! ~ ~ Q ~ ~ ^ ( ) ( / ~     = 4 4 4 4 4 4 4 4 4 4 4 4 4 4 4 4 4 4 4 4 4 2 X   X ) ) ) ^ ) ) ( ( ( Q ",
"~ ! Q / ! ~ _ ` ` ) / (     = 4 4 4 4 4 4 4 4 4 4 4 4 4 4 4 4 4 4 4 4 q 2 X   . ( ` ` ! Q ! / ~ ( ( ",
"! W E ! ! / ( ) ` _ ) (     = 4 4 4 4 4 4 4 4 4 4 4 4 4 4 4 4 4 4 4 4 q 2 X   X ( ( ) ~ ~ ~ ! Q Q ( ",
"! E E ! ~ ^ ~ ( _ ` _ )     = 4 4 4 4 4 4 4 4 4 4 4 4 4 4 4 4 4 4 4 4 4 2 X   X Q / ( / ~ ! Q Q ~ / ",
"Q E E ~ ( ( ( ~ ( ) ` `     = 4 4 4 4 4 4 4 4 4 4 4 4 4 4 4 4 4 4 4 4 4 2 X   X ! / / ! W E Q Q ( ( ",
"Q E E ~ / ( ! ! / ) ) _     = q 4 4 4 4 4 4 4 4 4 4 4 4 4 4 4 4 4 4 4 4 2 X   X Q Q ~ ! Q Q ~ ~ ( ( ",
"/ ~ Q ! ~ / Q ! /     5 K K m q 4 4 4 4 4 4 4 4 4 4 4 4 4 4 4 4 4 4 4 4 y K K F     ! / ( ^ ^ ^ ( ~ ",
"( ~ ! ~ ( ( ! ! (     e 1.1.o.q 4 4 4 4 4 4 4 4 4 4 4 4 4 4 4 4 4 4 4 4 v <.1.;.      ~ ( ( ` ) ( ! ",
"^ ~ Q ( ( / ~ ~ )     e 1.1.@.q 4 4 4 4 4 4 4 4 4 4 4 4 4 4 4 4 4 4 4 4 v <.1.;.      ~ ( _ ` _ ( ~ ",
"( ( ( ` _ ( / ) `     e 1.1.o.q 4 4 4 4 4 4 4 4 4 4 4 4 4 4 4 4 4 4 4 4 v <.1.;.      ~ _ ` ` _ ( / ",
"! ( ( ) ) _ ( ( `     e 1.1.o.q 4 4 4 4 4 4 4 4 4 4 4 4 4 4 4 4 4 4 4 4 v <.1.*.      ! ) ` ) ^ ^ ~ ",
"Q ! / ( ) _ ( ( `     e 1.1.o.q y 4 4 4 4 4 4 4 4 4 4 4 4 4 4 4 4 4 q q v >.1.*.      ( ) ) ( ~ ( ~ ",
"/ ! Q / ~ ! ( ( ( / ( ! % # f H L p 4 4 4 4 4 4 4 4 4 4 4 4 4 4 4 4 G P G > % > ^ _ _ ( ~ ! ( Q E ! ",
"/ Q Q / / ~ ( ^ W Q ! !     r U U j 4 4 4 4 4 4 4 4 4 4 4 4 4 4 q q H U S o   X ^ ) ) ( ~ ~ ~ ! Q ~ ",
"( ! Q / ( ( ( ~ E Q Q /     7 A A j u u u u u 4 4 4 4 4 y u u y u u C A V o   . ( ( / ( ( ( ~ ~ ~ ~ ",
"( ( ^ ( ) _ ( ( ! ! ! !     X o o z I I I I H y 4 4 4 4 j I I I I I $ O o     X ( ( ^ ! / ( ~ ^ ! Q ",
"( ( ( ( ) _ ( ( / Q ~ Q           z U U U U L u 4 4 4 4 n U U U U U +         X / / ! ! ~ ^ ( ( ~ Q ",
"( _ ` ` ) ( ( / Q ! ! E > > > < < x S S C A V 3 2 2 2 2 f C A A S S e < < > > , Q E E Q ^ ) ` _ / / ",
"_ ` _ ) ( ( ~ ~ Q     e 1.1.4.6.6.M * *                       $ & 6 3.6.5.2.1.*.      ! ^ ^ ^ ) _ ( ",
"` ` _ ( ( / ! ! Q     e 1.1.4.6.6.F 6 *     .     .           $ * * 3.5.5.1.1.;.      ( ( / ( ) ` ( ",
"` ) ) ( ( ( / ~ ~ l l D -.-.#.$.$.j 6 5 & & & o o + + o @ & & * * * O.$.+.-.-.%.l l a ! ! ! ( ( ` ) ",
") ~ ~ ^ / / X   % 1.1.:.U U g     $ * * N B N 6 * * * * 9 B B 9 * * . . + S U R 1.1.'     ! ( ( ) ( ",
"/ ! ! ^ Q !     > 1.1.:.U U d     $ * * N B N 6 * * * * 9 B B 9 * * .   + S U ] 1.1.'     W ^ ( / ! ",
"~ ~ ~ ( ( ~     % 1.1.,.] &.c     $ * * d h d s 9 9 9 9 h h h 8 * * . . + ] ] -.1.1.'     ! Q ! ( ~ ",
"! ^ ^ ~ ^ (     & 1.1.1.1.1.K     $ * * * * 6 z B B B B h 6 * * * * .   # >.1.1.1.1.'     ! Q Q / / ",
"~ E E ~ Q E     , 1.1.1.1.1.K     $ * * * * * z B B B B h 6 * * * * .   # >.1.1.1.1.'     ( / ~ Q Q ",
"( Q Q ! Q E ! ! ^ k k k k k 5   . o o + [ { } | | | | | { { { y o + . . o i k k k k t ( / / ~ Q Q ~ ",
"( ~ ~ ! Q Q ^ ^ )                        .X.X.X.X.X.X...X.X.X.w                       ~ ~ / ! Q E Q ",
"( ! ! ~ ! ^ ( ( ^                   .    .X.X...........X.X.X.w   .         . .       Q ~ ( / / ! ! ",
"/ ! ! ^ ~ ^ ( ( ) ^ ^ ) ~ ~ X     f A A T T J ; = = = = i T T H A A + .   ) ( ( _ ! Q ! ~ / / ( ( ! ",
"^ ( ~ ` ) ^ ( ( ` ) ) ` ) ~ ~     z U U U U A O         7 U U U U U +     ( / ~ ! Q Q ~ ( ~ Q ! ( ( ",
"( ) _ ( ( ( ( ( ` _ _ ) ) ^ !     z U U U U A o         7 U U U U U +     ( ~ ! ! E Q / ( ( ) ) / ~ ",
") _ ` ~ ^ ( ( ( _ ` _ ( ~ ~ ! ! ( o o o O X O Q Q ~ ) ) ) O O o o o ( ) ( ( ! ~ ~ E E / ~ ( _ _ ) ( ",
"` ` ` ( / / ! ! ( _ ) ~ Q Q Q Q (           X ~ W ~ ~ ( )           ( ` ( ( / / ~ E E ! ~ ( ( ) ` ( ",
"` _ ) ( / ~ ! ~ / ) ( ! Q ! W Q (             Q Q ~ ~ ( (           ) ) ) / ! ! ! Q W ! ~ ~ / ) ` ( ",
"_ ( ( ~ ~ ^ ^ ( ~ ! ! / ( ~ E Q ~ / ( ( ( ~ ! ! / ! ! / ( ( ` ) ( ) ` ( ( ( E W ! / / ( ~ ! / ( _ ) ",
") ^ ^ ^ ~ ! ( ( Q ! Q ~ ! ! ! ! ~ _ _ ( ~ ! Q Q ~ Q Q / / ! ( / / ) ( / / Q ~ / ~ Q ~ / ~ ~ ! ~ ( ~ "
};
