/* XPM */
static char *result[] = {
/* columns rows colors chars-per-pixel */
"50 50 140 2 ",
"   c #14182E",
".  c #171B31",
"X  c #1B1D32",
"o  c #241F33",
"O  c #1E2035",
"+  c #2B2335",
"@  c #22233C",
"#  c #2F283A",
"$  c #302637",
"%  c #322B3B",
"&  c #3B2B3A",
"*  c #432D3C",
"=  c #46303D",
"-  c #4E313E",
";  c #52323F",
":  c #232740",
">  c #242943",
",  c #2B2B45",
"<  c #292D48",
"1  c #2E314D",
"2  c #3C3441",
"3  c #2F3450",
"4  c #313552",
"5  c #343956",
"6  c #3F3E53",
"7  c #3A3F5E",
"8  c #373C5A",
"9  c #453C46",
"0  c #553643",
"q  c #5C3945",
"w  c #5A3944",
"e  c #633B46",
"r  c #6B3E4B",
"t  c #633E49",
"y  c #3B405E",
"u  c #325E73",
"i  c #4F434B",
"p  c #51454C",
"a  c #504551",
"s  c #574B58",
"d  c #694249",
"f  c #70434C",
"g  c #614F54",
"h  c #714954",
"j  c #67555D",
"k  c #6A5759",
"l  c #795758",
"z  c #424461",
"x  c #4D4C64",
"c  c #504D65",
"v  c #535067",
"b  c #5B5569",
"n  c #7C5563",
"m  c #7C5B64",
"M  c #745E69",
"N  c #5B6473",
"B  c #7A6260",
"V  c #746773",
"C  c #8F4D57",
"Z  c #945655",
"A  c #9B5957",
"S  c #995359",
"D  c #A55C5B",
"F  c #B3655F",
"G  c #9D5C60",
"H  c #816564",
"J  c #8C6268",
"K  c #826A6B",
"L  c #8A6D68",
"P  c #836965",
"I  c #94746D",
"U  c #856973",
"Y  c #876F7D",
"T  c #9E6872",
"R  c #957773",
"E  c #947B7D",
"W  c #A66162",
"Q  c #AE6F67",
"!  c #B76760",
"~  c #B26865",
"^  c #BE6A62",
"/  c #A06C75",
"(  c #C6756A",
")  c #CC7C6F",
"_  c #6E932B",
"`  c #70962C",
"'  c #769D2E",
"]  c #789F2F",
"[  c #77A02F",
"{  c #78A02F",
"}  c #77A030",
"|  c #79A230",
" . c #7FA933",
".. c #82AD34",
"X. c #86B136",
"o. c #A98477",
"O. c #B68D7E",
"+. c #CC8173",
"@. c #CB8878",
"#. c #D28575",
"$. c #DC927F",
"%. c #4C6884",
"&. c #4D758F",
"*. c #4E869E",
"=. c #4FA4B8",
"-. c #AD8A82",
";. c #BB9180",
":. c #B49088",
">. c #BC958A",
",. c #B08A93",
"<. c #9792A0",
"1. c #B797A0",
"2. c #B8B5BF",
"3. c #CD9F8C",
"4. c #C69989",
"5. c #DF9682",
"6. c #D39D87",
"7. c #E59F88",
"8. c #D3A38E",
"9. c #CEA190",
"0. c #DFA791",
"q. c #DEAB94",
"w. c #ECA88F",
"e. c #E2AD93",
"r. c #EFAC91",
"t. c #E7B299",
"y. c #E9B298",
"u. c #F7BD9E",
"i. c #FBBE9F",
"p. c #D3BCB5",
"a. c #FFC2A1",
"s. c #B3CEDA",
"d. c #CAC3C6",
"f. c #C6C7D1",
"g. c #C6C8D1",
"h. c #CECBD3",
"j. c #EED2C7",
"k. c #EED2C8",
"l. c #E4DBDC",
"z. c #DFE0E8",
/* pixels */
"| ] ] ] ] ] ' ] ] [ | ....| | | | } ] | | { ] ] | [ ] _ ] | ] ] | ] ] | | |  . .| | |  .| | [ [ [ ] ",
"| | [ ' ' ' } [ ' [ | |  ...|  .X.| | | { ] | | } ] ] } } } ' ] | ` _ } | } ] | X.| | X. .} ] ' ] [ ",
"] ' ' ' [ [ } } ' [ } ' |  .| |                                   ' ' | | [ ] ]  .| }  .{ ] { { ] ] ",
"' ' ' ' [ | | } ] [ [ ] [ { | |                                   ] ' } | | ] ] | { | | ] ] | { } [ ",
"] [ | |  . .| { [ ] ] [ ' _ } | : > > > > > > > > : > > : : > : > } } ] } | } } } ] ' [ ' _ {  .X.| ",
"]  . . . . .| | ] ] ' } '   . . 7 7 7 7 7 7 7 7 7 7 7 7 7 7 7 7 3     [ } } | } ' ' ' ] ' ' [ | X. .",
"[ ..X.X. .| { | ' [ } } } .   . 8 7 7 7 7 7 7 7 7 7 7 7 7 7 7 7 3     | ] ' } ' _ ` ' ' ] [ ' | ..X.",
"| ..X.| | { | | ] | |     1 1 3 7 7 7 7 7 7 7 7 7 7 7 7 7 7 7 7 7 1 1 >     | ' _ ' ' ] ' _ ] } | ..",
"| ..X.| } } [ [ ] ]       5 7 7 7 7 7 7 7 7 7 7 7 7 7 7 7 7 7 7 7 7 7 < .   | ' _ ' ] | ' ` [ } |  .",
"| |  .| ] ' ' _ [ ]       5 7 7 7 7 7 7 7 7 7 7 7 7 7 7 7 7 7 7 7 7 7 <     ' ' [ } [ [ ' ] | [ | | ",
"[ ' ' [ | ] _ _ [ '       5 7 7 7 7 7 7 7 y 7 7 7 7 7 7 7 7 7 7 7 7 7 <     ' ] [ } | | [ [ ] ] [ [ ",
"} _ _ [ | } _ _ ' ]       5 7 y 7 7 7 7 7 7 7 7 7 7 7 7 7 7 7 7 7 7 7 <     } } ] | | [ | } ' ] ] { ",
"] [ } ] [ [ ] ] [ }       5 7 y z z y y 7 7 7 7 y 7 7 7 7 7 z z y y y <     [  ...| { | ..X.| } [ ] ",
"] [ [ ] [ [ [ |  .|       5 7 x q.t.:.y 7 7 7 7 7 7 7 7 7 7 t.t.>.y y <     [  . . . .[ |  .| | } ] ",
"[ [ ' } ] [ ..X.X. .      5 7 v u.a.9.7 7 7 7 7 7 7 7 7 7 y a.a.9.y y <     | | | X.X.] ] ] } } | } ",
"] ` _ ] ] } |  .X...      5 7 v u.a.9.b b b b b b b b b b b a.a.3.7 7 <     { | | |  .[ [ [ ] ' ] [ ",
"] _ _ ' ' | | |  .X.      8 7 v u.a.a.a.a.a.a.a.a.a.a.a.a.a.a.a.9.y 7 <     } | } | { { [ ] ' ' [ | ",
"' _ _ [ | | | | |  .      8 7 v u.a.a.a.a.a.a.a.a.a.a.a.a.a.a.a.3.7 7 <     } [ [ } [ ] _ _ ' ' } | ",
"] _ _ ] } | ' | |  .9 9 2 7 7 x 3.8.9.9.8.t.a.a.a.a.a.q.8.8.8.8.-.7 7 6 9 9 2 } ` ' [ [ ] ' ] [ | | ",
"| ' ' ] } } ' .     ;.a.a.b 7 7 , , < < , R a.a.a.a.a.s , , , , 1 7 7 E a.a.L .   ' ] | | { [ { [ | ",
"} ] ' } | | ' X     -.a.a.b y 7 , , , , , R a.a.a.a.a.s , , , , 1 y y E a.a.L     ' ' [ | | X. .| ] ",
"| } } | | } ' X     O.a.a.b y z K K j @ O I a.a.a.a.a.a @ @ K K M y y E a.a.L     [ ] | | ..X...| [ ",
"| | | X. .| | .     O.a.a.b 9 c i.a.;.  . L a.a.a.a.a.9     a.a.3.y y E a.a.L     | | | ..X.X. .| } ",
"] } |  .....| .     O.a.a.b y c i.a.;.    K a.a.a.a.a.9     a.a.3.y y E a.a.L     ....[  ... . .{ [ ",
"] ] [ }  ...|  .X. .B L L m H J i.a.;.    l 5.5.5.5.$.&     a.a.0.n n J L L k ....X.X.|  ...| } | [ ",
"[ ' ] } [ ] } | } ]       D F ( i.a.;.    r ^ ^ ^ ^ ( $     a.a.r.^ F f     { { ] ..X.| [ ] } ' _ ] ",
"| ] ' } } [ | [ ' '       D F ( i.a.;.    d ^ ^ ^ ^ ^ &     a.a.r.^ ( d     { { [  . .| [ ] [ ] ' [ ",
"} [ ' [ | { | [ _ '       & - w ) #.@.;.;.6.w.r.w.w.w.4.;.O.#.#.Q * * +     { { { [ } | | [ ] [ [ [ ",
"| | [ |  ...| | ' ' .     .   + ! ^ #.a.i.i.a.a.a.a.i.i.a.a.^ ^ Z .   .     [ [ | { | [ { | [ { [ ' ",
"| | | |  ...| | } ' O X X O X # ~ ! +.i.u.u.i.i.i.i.i.u.i.i.! ! Z O O O X X ] ] } | [ ] [ { | | } ' ",
"{ ..X.X. .| | |     o.e.e.d.f.2.t e f G G ~ ( ( ( ( ( W G A e e m g.g.p.e.e.P     _ _ ' {  .....} | ",
"..X.X. .| } ] .     ;.a.a.l.z.h.w ; e C C D ( ^ ^ ^ ( S C C ; ; M z.z.j.a.a.L     _ _ ] | { {  ...| ",
"X.X...| | | ' .     O.a.a.l.z.h.w ; e C C D ( ! ( ! ! S C C 0 0 n z.z.k.a.a.L     _ ` } | } | ..X.| ",
"X. . .| |     I a.a.#.^ ^ $   X - ; e C C ,.z.z.l.z.z.T C C 0 0 &     q ^ ^ 5.a.i.a     ' } } | X. .",
" .[ [ { |     I a.a.#.^ ( $   X - ; e C C 1.z.z.z.z.z./ C C 0 0 9     e ^ ^ 5.a.a.i     ' ' } |  .| ",
"} ] ] { [     I a.a.5.) ( $   X w q r C C 1.z.z.z.z.z./ C C 0 q *     d ) ) 7.a.a.i     ` ` | | } [ ",
"[ [ [ | {     I a.a.a.a.i.2   o C C C C C 1.z.z.z.z.z./ C C C C r     H i.a.a.a.a.i     } } } } | } ",
"] { | [ |   . I a.a.a.a.a.2   o C C C C C 1.z.z.z.z.z./ C C C C r     H a.a.a.a.a.i     | } ' ' | } ",
"[ _ _ [ ' .   B ;.;.;.;.;.%   X t r h n m <.s.s.s.s.s.Y C n r r q     g ;.;.;.;.O.i . . } | } ] ' [ ",
"| ' ' ] ' _ ] .                     < %.%.*.=.=.=.=.=.&.%.%.                      X.X.{ | | ] ' ` ] ",
"| [ [ ] ' ' [ .                     < %.%.*.=.=.=.=.=.&.%.%.                      ....] { | ] ' _ ] ",
"| ] ] | ] [ | | | { [ | [     X t d h U U N u u u u u V U U d d 0        .X.|  ...| ] ' { | ' ] ] ] ",
"{ ] ] { [ [ | { | { | | |     + ! ^ ^ ^ ^ d           A ^ ^ ^ ^ Z     |  .X.| | ..] ' ' [ } } | } ] ",
"} | { .. .{ {  .X... .X...    + ! ^ ^ ^ ^ d           A ^ ^ ^ ^ Z     | [ | [ [ ] ' ' ] | } ] ' | | ",
"|  ...| | | | | X... . . .| ] ] = = = = = & | | { [ { = = = = = = [ ' [ | | } ] ] ` ' } | |  . .} ] ",
" ...X.{ ] | } | ..X...| ' ] ' ]           ..] ' ] ]  .            | [  .| | ] ] [ _ _ } | | .. . .| ",
"..X.X.| | } ] ] | ....] ' ' ' '           | [ ] _ [ {             | | X. .| } } [ _ _ ' [ | |  .X.| ",
"X.....{ } } ] } }  .| ] ' ] ` ' | | | ] | | ] ] ' [ { { | ..X. .|  . . .| | [ ' ] ' ` ] ] } |  ... .",
".. .{ ] [ [ | | } ] ] [ | [ _ ' [ } | | [ [ ] ' } ] ' } | } X. .|  .X.} | | _ ` ' } } } [ ] } | .. .",
" .{ { [ [ ] | [ ' ] ' [ ] ] ] ] | ....| { ] ' ] } ' ] } } [ | | }  .| ' } ' } } [ [ [ | [ [ ] [ | { "
};
