/* XPM */
static char *result[] = {
/* columns rows colors chars-per-pixel */
"50 50 137 2 ",
"   c #14182E",
".  c #171B32",
"X  c #191D33",
"o  c #211E32",
"O  c #1B233A",
"+  c #2A2235",
"@  c #282638",
"#  c #322637",
"$  c #362738",
"%  c #382738",
"&  c #392939",
"*  c #38313F",
"=  c #482E3C",
"-  c #4D333F",
";  c #52323F",
":  c #222740",
">  c #262A44",
",  c #2B2B44",
"<  c #2D2E48",
"1  c #2D324D",
"2  c #3B3441",
"3  c #313652",
"4  c #333855",
"5  c #3A3E51",
"6  c #363B58",
"7  c #3A3F5E",
"8  c #4F3641",
"9  c #443843",
"0  c #593543",
"q  c #593A44",
"w  c #553949",
"e  c #523343",
"r  c #623E46",
"t  c #3F425E",
"y  c #4F434B",
"u  c #534854",
"i  c #50465F",
"p  c #51495A",
"a  c #654148",
"s  c #65484E",
"d  c #7A474C",
"f  c #7F4C4F",
"g  c #614E53",
"h  c #665458",
"j  c #6A5658",
"k  c #6C5859",
"l  c #625154",
"z  c #424461",
"x  c #4E4D65",
"c  c #514760",
"v  c #534F66",
"b  c #4F5262",
"n  c #5B5569",
"m  c #5C5E6D",
"M  c #635460",
"N  c #695760",
"B  c #685C63",
"V  c #6C5E69",
"C  c #725D64",
"Z  c #6C606F",
"A  c #7E6361",
"S  c #7C656F",
"D  c #606374",
"F  c #696B7C",
"G  c #7C6B74",
"H  c #726471",
"J  c #824B4F",
"K  c #804652",
"L  c #834853",
"P  c #8C4C56",
"I  c #955656",
"U  c #995957",
"Y  c #9E5B58",
"T  c #A25C59",
"R  c #AB615C",
"E  c #B0635E",
"W  c #965963",
"Q  c #806663",
"!  c #847077",
"~  c #847178",
"^  c #907272",
"/  c #9B7B76",
"(  c #BE6A62",
")  c #B56E69",
"_  c #A86965",
"`  c #C47167",
"'  c #6F942B",
"]  c #70962C",
"[  c #769D2E",
"{  c #789F2F",
"}  c #77A02F",
"|  c #78A02F",
" . c #77A030",
".. c #79A230",
"X. c #7FA933",
"o. c #82AD34",
"O. c #86B136",
"+. c #9C8078",
"@. c #AF827C",
"#. c #B18A7B",
"$. c #CF8072",
"%. c #CE8E7F",
"&. c #D98F7D",
"*. c #397085",
"=. c #3B758A",
"-. c #537F92",
";. c #7A7C8B",
":. c #568092",
">. c #528FA1",
",. c #5F8FA0",
"<. c #4893A7",
"1. c #4A98AD",
"2. c #579FB1",
"3. c #589FB1",
"4. c #6192A3",
"5. c #4FA4B8",
"6. c #73B3C4",
"7. c #80828D",
"8. c #9D8180",
"9. c #AD8C85",
"0. c #BA9284",
"q. c #9B9DAA",
"w. c #C49884",
"e. c #CA9C88",
"r. c #DC9380",
"t. c #D49E89",
"y. c #CEA291",
"u. c #EDAB91",
"i. c #E7B299",
"p. c #EDB599",
"a. c #F3B699",
"s. c #F7BD9E",
"d. c #FABC9C",
"f. c #FFC2A1",
"g. c #F3CEBC",
"h. c #DFE0E8",
"j. c #ECECEC",
/* pixels */
"..{ [ { } { [ { { } ..o.o...........{ ......} }  . .{ ] [ ..{ { ..{ { .. ...X.X.......X.....} { { [ ",
"....} [ [ {  .{ [ } ....X.o...X.O......... . .....} { .. ...[ { { [ ' ......{ ..o.X...O.X. .{ { { } ",
"{ [ [ [ } }  . .[ {  .[ ..X.....X.{ . . . . . . . . . . . . . . . . [ ......{ { X.....X.| { | } { } ",
"[ [ [ [ } .... .[ } } { } | ..| {                                   [ { } ..[ { .... .{ { { | .. .} ",
"{ } ....X.X...| { { [ } { ]  ...{   .       .                       { [ }  ...|  .{ [ { [ ' } X.O...",
"{ X.X.X.X.X.....{ { {  .{ [ }     < 6 6 6 4 6 4 6 6 6 4 6 6 6 6 6 6 X .   { ..{ [ [ [ [ [ [ } ..O.X.",
"} o.O.O.X...| ..[ { .... . ...    1 7 7 t 7 7 7 t 7 7 7 7 7 t t 7 7 X     { | { ' [ [ [ { ..{ ..o.O.",
"..o.O.....| ....[ { X.o.O.o.... . 1 7 7 7 7 7 7 7 7 7 7 7 7 7 7 7 7 O . . o.| { ' ] [ { ] ] { } ..o.",
"..o.O... . .} { [ } ..o.    > 6 7 7 7 7 7 7 7 7 7 7 7 7 7 7 7 7 7 7 6 6 4 .   O ' [ { ..[ ] }  ...X.",
"....X...{ [ [ ' } {  ...    > 7 7 7 7 7 7 7 7 7 7 7 7 7 7 7 7 7 7 7 7 7 6 .   . }  .} ..[ [ .. .....",
"} [ [ } ..{ ' ' { { } }     > 7 7 7 7 7 7 7 7 7 7 7 7 7 7 7 7 7 7 7 7 7 6 .   X }  ...| } } { { } } ",
" .' ' } ..} ' ' [ }  .{     > 7 7 7 7 7 7 7 7 7 7 7 7 7 7 7 7 7 7 7 7 7 6 .   X { .... ... .{ { { | ",
"{ }  .{ } } { { } .. .{     > 7 7 7 7 7 7 7 7 7 7 7 7 7 7 7 7 7 7 7 7 7 4 .   X o...| ..o.o.....} { ",
"{ } } [ } } | ..X... . .    > 7 7 7 7 7 G ~ G z 7 7 7 7 7 7 7 7 7 7 7 7 6 .   O X.X.X.| ..X..... .{ ",
"} } [  .{ } o.O.O.X.....    > 7 7 7 7 7 p.f.i.x 7 7 7 7 7 6 7 7 7 7 7 7 6 X   . ..O.O.{ { {  . ... .",
"{ ] ' { {  ...X.o.o.X...    > 7 7 7 7 7 p.f.i.x 7 7 7 7 7 t 7 7 7 7 7 t 6     O ....X.} } } { [ {  .",
"[ ' ' { } .. ...X.O.O.X.    u 8.8.8.8.8.s.f.i.x 7 7 7 7 7 7 7 7 7 7 7 7 6 .   X ..| ..| } { [ [ }  .",
"[ ' ' } ..| ..} | X.O.O.    Q f.f.f.f.f.f.f.i.x 7 7 7 7 7 7 7 7 7 7 7 7 6 .   X { ..| { ' ' [ [ ....",
"[ [ ' }  ...{ { | X.X.o.    Q f.f.f.f.f.f.f.i.x 7 7 7 7 7 7 7 7 7 7 7 7 4 .   X ] [ { { { [ } } ..| ",
"} [ [ { } } { [ ..} } ..    Q f.f./ M B N N M 7 7 7 7 7 7 7 7 7 7 7 7 7 6 .   . ' [ [ ..| ..| | ....",
"} { [  .....{ { | { [ '     Q f.f.C , , , , < 7 7 7 7 7 7 7 7 7 7 7 7 7 6 .   O { { [ } ....O.X...{ ",
" .}  ....... .} X...[ '     Q f.f.C , , , , , 7 7 7 7 7 7 7 7 7 7 7 7 7 6 .   X ..{ { ....o.O.o...} ",
"| ....O.X.......O.X.{ '     A f.f.h X . 0.e.0.x 7 v y.y.y.y.y.H 7 7 7 7 6 .   . O..... .o.O.o.o...} ",
"}  ...X.o.X...X.O... .[     A f.f.l . . p.f.i.x 7 n f.f.f.f.f.~ 7 7 7 7 6 .   . O.o.o...o.o.o.| ..} ",
"{ {  . .X.o...X.O.X...}     A d.d.g     p.f.i.x 7 n d.d.d.f.f.~ 7 7 6 6 4 .   . O.O.O...X.X... . .} ",
"} { [  .} { } .. . . .{     a ` ` 8     p.f.i.x 7 c ` ` r.f.f.~ 7 7 O . . { ..| { o.o. .} { ..[ ' { ",
" .{ [  . .} ..} ' { { {     a ( ( - .   p.f.i.x 7 c ( ( &.f.f.~ t 7 O      ... .{ X.X...} } } { [ } ",
"..{ [ { ......} ' [ {  .    q I I s y y p.f.p.G Z S ` &.r.y.y.V 3 3 .      . ...| } ........} } } } ",
"....| | X.o... .{ { } [  ...}     #.f.f.f.f.f.f.f.f.f.f.9.7 7 :     } .. ...{ } ..| ..{ } ..} | { [ ",
"........X.o..... . .} [ {  ...    #.f.f.f.f.f.f.f.f.f.d.9.6 7 :     ...... .[ {  ...} [ } | ....} [ ",
"..O.O.O.X.......[ { { ' [ { { b b / w.w.w.w.e.u.u.u.t.t.^ 3 3 O     X.O.X.| } } [ ' ' [ | X.O.o. . .",
"o.o.O.X... .{ { [ } { ' [ } [ j.j.m         + R ( R e e $           o...| ..{ { { ' ' } | | | X.o...",
"O.O.O.} ..} { { [ { { ' [ } ' j.j.m         + R ` T ; ; %           o.{ }  .{ { } ' '  ... ...X.O...",
"O.X...| ....} } } } { { [  . .7.;.;.;.;.w e 0 J L d % % p ;.;.5     X.| { [ } } [ { [ { [ { } X.O.X.",
"X.} | ..}  .} } ....X. .} ....    q.h.h.W P P 0 ; =     F h.h.D     { } } { [ [ [  ...} [ [ } ..X...",
"..{ { ..} {  .{ ..o.o..... .{     q.h.h.W P L 0 ; =     F h.h.D     { | ....' ' [  . ...' [ } .. .} ",
"} } } ..| } [ {  .o.o...X.o...    q.h.h.W P L $ + & J J / g.g.B     ......| { { | ..| ..} } { { .. .",
"{ } ..} ....[ [ ..X.o. .X.O...    q.h.h.W P f X   # ( ` &.f.f.k     | | ........| ...... . .[ [ .. .",
"} ' ' } [ ' [ [ ..|  .[ [ { ..    q.h.j.W P J +   # ` E &.f.f.k     O.} { {  ...X.O.O...| .. .} [ } ",
"} [ [ { [ ' [ { .. .{ { {  . .    -.6.6.4.,.:.O   * u.u.d.d.f.k     o.X...X. ...X.o.O..... .} [ ] { ",
"} } } { ] [ | ....} }  ...} {     =.5.5.5.5.1.O   * f.f.f.f.f.j     ..o.O.O...X.O.o.o.} } } { [ ' { ",
"..{ { ..{ } ..........| } { }     *.1.1.2.2.<.@ + 9 p.p.p.p.p.j     } ..o.O...X.O...{ [ } .. . .{ { ",
"..{ { | | ..............} [ } X.O.O O O _ ) ) E R U @ @ @ @ @ } [ [ [ ..X.o.....X.} [ { }  . ... .{ ",
".. .| o.o.| ....O.X.X.O.X.{ { ..O.      E ( ( ( ( T           }  .] ] | .... .} [ [ [ } ..} [ { ....",
"| X.o...........O.o.o.X.....{ { X.      Y R R R R I           ....} [  .....} { [ [ ' } ....X.X. .{ ",
"X.o.O.| } ......o.O.o.......[ { ..X.X...            | O.X.| X...| ..} X.....{ } } ' ' {  ...o.o.X...",
"O.O.O..... .[ { ..o.X. .[ [ [ [ ....| }             | X.X.o.O.X... ...O..... . .} ' ' [ } ....X.O...",
"O.o.X... . .{ {  .X...{ [ { ] [ | ..| } . .   . . . } } X.o.O.X.| X.X.o.X. .{ [ { [ [ { } }  .X.O...",
"o.....} } | ....} { [  ...} ' [ }  .....| } { {  .{ {  .....O.X...X.O..... .] ] { {  . .} }  ...o.X.",
"X.| | | } { | ..{ { [ } { { { { ..o.o...} { [ [  .[ [  . .{ .. . ..... . .{ } } } { {  .} } { } ...."
};
