/* XPM */
static char *result[] = {
/* columns rows colors chars-per-pixel */
"50 50 228 2 ",
"   c #14182E",
".  c #171B31",
"X  c #171B32",
"o  c #1B1C30",
"O  c #181C32",
"+  c #191C32",
"@  c #191D32",
"#  c #191D33",
"$  c #1A1E33",
"%  c #1F1E32",
"&  c #1E1F33",
"*  c #191D34",
"=  c #1A1F36",
"-  c #1C1F36",
";  c #221F32",
":  c #1E2136",
">  c #1C2038",
",  c #262033",
"<  c #212136",
"1  c #232336",
"2  c #2E2335",
"3  c #222339",
"4  c #202439",
"5  c #25293E",
"6  c #2A293D",
"7  c #332537",
"8  c #382738",
"9  c #46303D",
"0  c #52323F",
"q  c #2B2B45",
"w  c #2B304B",
"e  c #2C314C",
"r  c #2D324D",
"t  c #3B3441",
"y  c #3A3645",
"u  c #30314D",
"i  c #39354B",
"p  c #36394D",
"a  c #2F3450",
"s  c #313652",
"d  c #333755",
"f  c #343956",
"g  c #343957",
"h  c #383D5B",
"j  c #393E5C",
"k  c #3A3F5E",
"l  c #423843",
"z  c #443A45",
"x  c #523343",
"c  c #513541",
"v  c #5B3A44",
"b  c #623B47",
"n  c #653D46",
"m  c #6B3E4B",
"M  c #3B405F",
"N  c #454859",
"B  c #4A4D5E",
"V  c #6E454B",
"C  c #71404D",
"Z  c #77484C",
"A  c #7E4550",
"S  c #72595A",
"D  c #765D5D",
"F  c #765F5E",
"G  c #424561",
"H  c #504C61",
"J  c #504E65",
"K  c #514E66",
"L  c #5B5569",
"P  c #5C5868",
"I  c #685965",
"U  c #685A65",
"Y  c #715160",
"T  c #735462",
"R  c #756169",
"E  c #7B6468",
"W  c #716471",
"Q  c #834E50",
"!  c #884E51",
"~  c #8F4D57",
"^  c #8D5253",
"/  c #915354",
"(  c #945655",
")  c #985B59",
"_  c #9F5B59",
"`  c #A25C59",
"'  c #89646B",
"]  c #836A6B",
"[  c #847077",
"{  c #897479",
"}  c #8C767A",
"|  c #947878",
" . c #BE6A62",
".. c #C47167",
"X. c #C9796D",
"o. c #6E932B",
"O. c #6F942B",
"+. c #6F952C",
"@. c #70952C",
"#. c #70962C",
"$. c #71962C",
"%. c #71972C",
"&. c #71972D",
"*. c #71982D",
"=. c #72982D",
"-. c #72992D",
";. c #73992D",
":. c #739A2D",
">. c #739A2E",
",. c #749A2D",
"<. c #749A2E",
"1. c #749B2E",
"2. c #749C2E",
"3. c #759C2E",
"4. c #759D2E",
"5. c #759D2F",
"6. c #769D2E",
"7. c #769D2F",
"8. c #769E2E",
"9. c #779E2E",
"0. c #769E2F",
"q. c #779E2F",
"w. c #769F2F",
"e. c #779F2F",
"r. c #789F2F",
"t. c #77A02F",
"y. c #78A02F",
"u. c #78A12F",
"i. c #77A030",
"p. c #78A030",
"a. c #78A130",
"s. c #79A130",
"d. c #79A230",
"f. c #79A330",
"g. c #7AA230",
"h. c #7AA330",
"j. c #7AA231",
"k. c #7AA331",
"l. c #7BA331",
"z. c #7AA431",
"x. c #7BA431",
"c. c #7BA531",
"v. c #7CA531",
"b. c #7CA631",
"n. c #7CA532",
"m. c #7CA632",
"M. c #7DA632",
"N. c #7DA732",
"B. c #7EA732",
"V. c #7EA733",
"C. c #7EA832",
"Z. c #7FA832",
"A. c #7FA932",
"S. c #7EA833",
"D. c #7FA833",
"F. c #7FA933",
"G. c #80A933",
"H. c #80AA33",
"J. c #80AB33",
"K. c #81AB33",
"L. c #80AA34",
"P. c #80AB34",
"I. c #81AB34",
"U. c #82AB34",
"Y. c #81AC34",
"T. c #82AC34",
"R. c #82AD34",
"E. c #83AD34",
"W. c #82AC35",
"Q. c #82AD35",
"!. c #83AD35",
"~. c #83AE34",
"^. c #83AE35",
"/. c #84AE35",
"(. c #84AF35",
"). c #84AE36",
"_. c #84AF36",
"`. c #85AF36",
"'. c #85B035",
"]. c #85B036",
"[. c #86B036",
"{. c #86B136",
"}. c #86B137",
"|. c #87B237",
" X c #3E7B90",
".X c #467185",
"XX c #497A8C",
"oX c #797B87",
"OX c #787988",
"+X c #7A7C8B",
"@X c #7A7D8B",
"#X c #4892A6",
"$X c #4A98AD",
"%X c #4B99AD",
"&X c #5A96A8",
"*X c #4C9CB0",
"=X c #589FB1",
"-X c #4FA4B8",
";X c #62A5B7",
":X c #67ADBF",
">X c #67AEC0",
",X c #80828D",
"<X c #8B8D9B",
"1X c #B89082",
"2X c #BE9482",
"3X c #BE978B",
"4X c #C59885",
"5X c #C69C8E",
"6X c #CA998D",
"7X c #D59785",
"8X c #D19E88",
"9X c #D49E89",
"0X c #E49D87",
"qX c #CFA291",
"wX c #DEAC96",
"eX c #E6A089",
"rX c #E4A68E",
"tX c #EFAC92",
"yX c #ECB498",
"uX c #F4B397",
"iX c #F2B99B",
"pX c #FBBC9D",
"aX c #FFC2A1",
"sX c #F6CBB6",
"dX c #D3D4DD",
"fX c #DCDAE2",
"gX c #DFE0E8",
"hX c #ECECEC",
/* pixels */
"d.e.0.p.y.y.0.9.y.s.c.W.L.v.h.d.j.q.q.s.d.d.0.e.d.a.0.%.3.d.3.e.d.e.0.d.d.d.F.F.M.h.d.M.x.d.u.y.y.0.",
"d.d.d.6.3.6.a.a.3.y.d.h.F.R.c.N.}.x.d.d.d.d.d.d.d.0.7.a.d.d.3.e.d.-.#.d.d.d.8.x.`.n.d.}.F.a.6.3.6.y.",
"0.0.0.3.0.y.d.a.3.y.a.0.g.m.h.x.B.                            s.d.3.<.d.d.d.6.y.N.k.d.B.g.0.y.y.y.w.",
"3.3.4.4.y.k.d.a.4.y.y.7.e.u.d.d.                                @ q.6.s.d.d.6.q.d.s.s.d.q.4.s.h.k.e.",
"3.e.a.a.b.H.x.d.a.q.q.y.3.*.e.y.                                + a.p.6.y.d.a.a.s.q.6.d.1.=.u.M.^.x.",
"e.M.F.C.D.C.h.d.e.e.e.d.0.    * w e e e e e e e e e e e e e e e r     e.e.e.d.i.2.3.3.e.3.1.e.v.[.I.",
"h.^.|.'.F.d.d.a.3.y.d.d.d.    * j k k k k k k k k k k k k k k k h       0.3.a.7.O.:.3.3.e.a.4.g.(.{.",
"h.^.|.n.h.d.d.a.3.y.v./.`.    * j k k k k k k k k k k k k k k k h       L.).k.7.O.:.3.a.:.=.t.d.c.R.",
"h.Y.`.z.d.a.t.e.6.t.      a f g k k k k k k k k k k k k k k k k k f f r     f.7.$.1.6.d.1.*.u.d.h.F.",
"d.x.c.d.t.3.%.*.a.q.      f k k k k k k k k k k k k k k k k k k k k k s     7.0.t.a.a.d.8.3.s.d.d.p.",
"d.2.:.a.a.7.@.@.e.e.      f k k k k k k k k k k k k k k k k k k k k k s     e.e.e.a.d.d.a.e.e.e.e.e.",
"a.%.o.u.d.t.#.+.3.y.      f k k k k k k k k k k k k k k k k k k k k k s     d.y.4.a.d.d.d.a.4.3.3.y.",
"3.y.d.6.e.a.6.6.d.d.      f k k k k k k k k k k k k k k k k k k k k k s     a.N.~.c.d.d.I./.x.d.d.0.",
"0.y.y.8.e.y.s.g.M.k.      f k k k k k k k k k k k k k K L L M k k k k s     d.v.J.C.M.y.B.L.h.d.d.e.",
"a.0.3.a.e.r.I.(.}.N.      f k k k k k k k k k k k k k 5XaXaXG k k k k s     d.d.x./.}.3.6.q.s.d.d.d.",
"0.-.$.7.e.s.m.C.].^.      f k k k k k k k k k k k k k 5XaXaXG k k k k s     d.d.f.M.V.y.y.t.0.0.0.a.",
"3.#.o.3.t.d.d.k.Y.'.      f k k k k k k k k k k k k k 5XaXaX{ [ [ [ [ U     a.d.a.d.d.u.t.0.3.4.0.a.",
"3.#.o.u.d.d.d.d.d.J.      f k k k k k k k k k k k k k 5XaXaXaXaXaXaXaX4X    a.y.4.a.d.3.&.@.1.0.d.d.",
"0.=.#.e.a.d.y.y.d.M.      f k k k k k k k k k k k k k 5XaXaXaXaXaXaXaX4X    t.0.:.0.y.0.1.;.6.e.d.d.",
"d.0.3.3.e.a.6.6.d.0.      f k k k k k k k k k k k k k I E E E E ] aXaX4X    6.;.O.:.3.d.d.d.d.d.d.d.",
"d.0.3.a.d.a.6.6.d.0.      f k k k k k k k k k k k k k u q q q q i aXaX4X    h.a.t.6.3.d.d.v._.Y.d.0.",
"d.e.0.M.c.s.e.y.V.s.      f k k k k k k k k k k k k k u q q q q i aXaX4X    N.N.M.y.0.d.v.G.].Y.d.e.",
"d.d.d.[.I.d.d.c.|.B.      f k k k k J 3X3X3X3X3XW k k | 1X1X3 - 6 aXaX4X    ~.].].m.d.d.I.}.(.J.d.d.",
"e.a.d.D.L.G.z.c.|.B.      f k k k k L aXaXaXaXaX} k k 5XaXaX&   1 aXaX4X    N.P.].T.I.d.H./.A.b.d.y.",
"3.y.d.d.F.`.c.c.|.B.      f k k k k L aXaXaXaXaX} k k 5XaXaX&   1 aXaX4X    d.N.(.}.|.d.F.T.k.d.d.0.",
"d.0.3.a.e.6.a.d.d.d.a.4.e.X X > j k L aXaXeX....T k k 5XaXaX&   % ....)     a.y.q.K.(.d.e.6.s.4.O.0.",
"d.0.3.a.a.e.s.u.1.0.e.e.p.    * j k L aXaX0X . .Y k k 5XaXaX&   %  . .(     d.a.y.N.F.d.y.e.e.0.:.t.",
"d.0.3.a.d.d.d.t.o.;.6.s.d.    * d f H wXwX7XX.X.' L L qXaXaXz t l ` ` Q     d.d.d.d.d.d.d.a.4.0.d.d.",
"d.a.y.d.N.I.x.a.7.e.t.0.p.d.d.z.    = k k } aXaXaXaXaXaXaXaXaXaXiX      d.d.e.t.d.d.d.0.p.d.y.u.d.1.",
"d.h.z.k.F./.x.d.a.d.y.3.0.d.d.d.    = k k } aXaXaXaXaXaXaXaXaXaXiX      f.d.6.q.a.a.u.3.e.d.k.k.a.-.",
"h.^.|.'.F.d.d.a.3.y.e.+.1.s.6.0.    * s s R 9X9XrXtXtX8X4X4X4X4X2XB B N B.d.d.y.1.@.o.3.e.c.~.J.d.d.",
"!.(.].B.x.s.e.0.3.y.e.+.1.u.-.-.          2 0 0 /  . .9         4 hXhXhXg.d.q.e.e.#.o.y.a.h.b.Z.T.v.",
"|.].(.k.d.a.6.3.3.y.e.+.1.y.#.#.          2 0 0 /  . .9         4 hXhXhXy.d.6.0.y.#.o.d.d.d.d.B.}.M.",
"(.C.v.d.d.d.a.u.u.d.y.1.0.d.e.e.    5 +X+XP 7 7 n ! ! b x x OX+X@X,X,XoXq.7.y.t.0.0.w.7.7.0.d.N.(.m.",
"H.h.y.d.s.p.d.d.d.m.n.e.p.d.p.a.    p gXgX<X    8 0 0 A ~ ~ fXgXdX      e.0.5.4.4.a.d.0.1.1.a.v.H.h.",
"a.0.3.a.t.6.a.d.d.Q./.x.d.d.8.0.    p gXgX<X    8 0 0 A ~ ~ fXgXdX      d.d.#.%.6.a.d.d.>.%.y.d.d.0.",
"0.y.y.d.s.y.0.q.d.I.R.k.S.T.k.e.    y sXsX6X^ ^ c , , C ~ ~ fXgXdX      d.d.0.e.u.d.d.d.t.0.0.e.d.a.",
"3.y.d.d.d.a.6.6.d.J.T.k.L.].m.y.    t aXaX0X . .v     m ~ ~ fXgXdX      d.d.d.d.d.d.d.d.d.a.4.0.d.d.",
"a.%.o.u.1.+.1.6.d.d.a.4.3.4.a.d.    t aXaX0X . .v     m ~ ~ fXgXdX      0.3.a.d.x./.|.d.d.d.d.y.3.y.",
"d.2.:.e.:.@.6.e.d.p.e.e.e.e.e.p.    t aXaXpXuXuXS     .X&X&X:X>X;X      N.M.d.x.L._.{.d.d.s.t.4.-.e.",
"d.s.a.6.:.=.y.d.d.e.0.s.d.u.0.y.    t aXaXaXaXaXF      X-X-X-X-X*X      ].|.z.N.{.!.T.a.d.a.0.1.#.0.",
"d.q.6.a.y.y.d.d.d.s.a.d.t.7.y.m.    t yXyXyXyXyXD ; ; XX=X=X%X$X#X      Y.'.k.N.^.l.r.6.t.d.a.a.e.0.",
"d.q.6.h.h.d.d.d.c.h.h.c.s.6.p.N.|.N.x.          Z  . . . . .o   # 3.3.d.F.R.k.v.H.y.3.6.t.d.a.s.d.q.",
"d.d.d.~.F.d.d.c.|.B.m.].L.s.6.g.(.|.`.          Z  . . . . .o   @ =.+.d.d.d.d.y.3.3.3.d.d.a.4.0.d.d.",
"d.D.I.v.l.d.d.x.{.!.L.F.n.s.6.y.C._./.. . . . . V _ _ _ _ _ < $ : 0.2.d.d.d.e.e.0.-.&.d.d.k.V.M.d.t.",
"M.^.}.y.r.d.a.g.T.].^.g.a.y.6.0.d.J.H.h.D.W.6.3.            m.x.d.d.d.m.k.d.8.e.y.#.o.a.s.c.!.Y.n.y.",
"].].(.h.d.a.0.8.k.I.I.e.4.4.3.0.d.h.g.0.a.k.s.0.            ].H.d.d.z.].N.d.s.d.y.#.o.4.t.d.z.C.`.n.",
"{.R.J.s.s.s.e.e.d.N.N.e.0.7.,.3.d.d.s.e.y.d.y.8.=.@ @ @ @ O {.H.d.b.S.Q.m.d.0.0.e.:.=.0.e.y.d.N.].M.",
"~.v.d.6.e.d.d.d.d.0.6.s.d.y.%.-.d.h.h.d.d.a.3.0.d.7.7.d.d.d.^.F.d.W.`.d.d.d.#.%.6.p.d.d.e.8.a.m.E.v.",
"v.h.d.a.e.q.s.a.0.4.6.s.y.0.0.e.d.U.Y.x.y.6.3.0.d.7.7.d.p.0.b.d.0.l.n.0.0.0.0.e.y.q.0.d.a.t.0.e.s.d."
};
